<svg width="20" height="20" viewBox="0 0 20 20" fill="none" xmlns="http://www.w3.org/2000/svg">
<mask id="mask0_8_4232" style="mask-type:alpha" maskUnits="userSpaceOnUse" x="0" y="0" width="20" height="20">
<rect width="20" height="20" fill="#D9D9D9"/>
</mask>
<g mask="url(#mask0_8_4232)">
<path d="M9.47501 12.475L5.85001 8.85C5.80001 8.8 5.76251 8.74583 5.73751 8.6875C5.71251 8.62917 5.70001 8.56667 5.70001 8.5C5.70001 8.36667 5.74585 8.25 5.83751 8.15C5.92918 8.05 6.05001 8 6.20001 8H13.8C13.95 8 14.0708 8.05 14.1625 8.15C14.2542 8.25 14.3 8.36667 14.3 8.5C14.3 8.53333 14.25 8.65 14.15 8.85L10.525 12.475C10.4417 12.5583 10.3583 12.6167 10.275 12.65C10.1917 12.6833 10.1 12.7 10 12.7C9.90001 12.7 9.80835 12.6833 9.72501 12.65C9.64168 12.6167 9.55835 12.5583 9.47501 12.475Z" fill="black"/>
</g>
</svg>
