<svg width="6" height="10" viewBox="0 0 6 10" fill="none" xmlns="http://www.w3.org/2000/svg">
<path d="M1.92478 5.00001L5.5531 8.62833C5.71535 8.79057 5.79647 8.97862 5.79647 9.19249C5.79647 9.40635 5.71535 9.59441 5.5531 9.75665C5.39086 9.91889 5.20281 10 4.98894 10C4.77508 10 4.58452 9.91638 4.41726 9.74913L0.221239 5.5531C0.147493 5.47346 0.092183 5.38717 0.0553098 5.29425C0.0184366 5.20133 0 5.10178 0 4.99558C0 4.88939 0.0184366 4.78983 0.0553098 4.69691C0.092183 4.60399 0.147493 4.52065 0.221239 4.44691L4.41726 0.250886C4.58452 0.083629 4.77508 0 4.98894 0C5.20281 0 5.39086 0.081121 5.5531 0.243363C5.71535 0.405605 5.79647 0.593658 5.79647 0.807523C5.79647 1.02139 5.71535 1.20944 5.5531 1.37168L1.92478 5.00001Z" fill="#71706F"/>
</svg>
