<svg width="40" height="40" viewBox="0 0 40 40" fill="none" xmlns="http://www.w3.org/2000/svg">
<path d="M20.001 11.3633C21.0796 11.3633 21.9536 12.2392 21.9536 13.3186C21.9536 14.3981 21.0796 15.274 20.001 15.274C18.9223 15.274 18.0484 14.3981 18.0484 13.3186C18.0484 12.2392 18.923 11.3633 20.001 11.3633Z" fill="#121110"/>
<path d="M20.001 26.6854C20.9543 26.6854 21.7276 25.9116 21.7276 24.9564C21.7276 24.0011 20.9543 23.2274 20.001 23.2274C19.0477 23.2274 18.2744 24.0017 18.2744 24.9564C18.2744 25.911 19.0477 26.6854 20.001 26.6854Z" fill="#121110"/>
<path d="M23.3889 3.39325C23.3889 1.51938 21.8716 0 20.0003 0C18.129 0 16.6117 1.51938 16.6117 3.39325C16.6117 5.26711 18.129 6.7865 20.0003 6.7865C21.8716 6.7865 23.3889 5.26711 23.3889 3.39325Z" fill="#121110"/>
<path d="M20.0003 34.7663C18.557 34.7663 17.387 35.9379 17.387 37.3831C17.387 38.8284 18.557 40 20.0003 40C21.4436 40 22.6136 38.8284 22.6136 37.3831C22.6136 35.9379 21.4436 34.7663 20.0003 34.7663Z" fill="#121110"/>
<path d="M12.7858 1.07145C11.7071 1.07145 10.8332 1.9473 10.8332 3.02675C10.8332 4.10621 11.7078 4.98206 12.7858 4.98206C13.8638 4.98206 14.7384 4.10621 14.7384 3.02675C14.7384 1.9473 13.8644 1.07145 12.7858 1.07145Z" fill="#121110"/>
<path d="M9.63717 16.3808C10.7158 16.3808 11.5898 15.5049 11.5898 14.4255C11.5898 13.346 10.7158 12.4702 9.63717 12.4702C8.55852 12.4702 7.68454 13.346 7.68454 14.4255C7.68454 15.5049 8.55919 16.3808 9.63717 16.3808Z" fill="#121110"/>
<path d="M5.9279 15.1545C5.9279 13.5156 4.60126 12.1865 2.96395 12.1865C1.32664 12.1865 0 13.5149 0 15.1545C0 16.794 1.32664 18.1225 2.96395 18.1225C4.60126 18.1225 5.9279 16.794 5.9279 15.1545Z" fill="#121110"/>
<path d="M14.2024 6.42C12.4825 6.42 11.0891 7.81588 11.0891 9.53754C11.0891 11.2592 12.4831 12.6551 14.2024 12.6551C15.9217 12.6551 17.3157 11.2592 17.3157 9.53754C17.3157 7.81588 15.9217 6.42 14.2024 6.42Z" fill="#121110"/>
<path d="M13.9691 25.656C11.3925 25.656 9.30384 27.7475 9.30384 30.3276C9.30384 32.9078 11.3925 34.9993 13.9691 34.9993C16.5457 34.9993 18.6344 32.9078 18.6344 30.3276C18.6344 27.7475 16.5457 25.656 13.9691 25.656Z" fill="#121110"/>
<path d="M10.4052 22.6599C10.4052 20.7347 8.84118 19.1679 6.91788 19.1679C4.99458 19.1679 3.43061 20.734 3.43061 22.6599C3.43061 24.5859 4.99458 26.1513 6.91788 26.1513C8.84118 26.1513 10.4052 24.5852 10.4052 22.6599Z" fill="#121110"/>
<path d="M9.83383 6.78583C9.83383 4.62558 8.0852 2.87455 5.9279 2.87455C3.7706 2.87455 2.02197 4.62558 2.02197 6.78583C2.02197 8.94608 3.7706 10.6971 5.9279 10.6971C8.0852 10.6971 9.83383 8.94608 9.83383 6.78583Z" fill="#121110"/>
<path d="M15.2317 23.3095C17.389 23.3095 19.1377 21.5584 19.1377 19.3982C19.1377 17.2379 17.389 15.4869 15.2317 15.4869C13.0744 15.4869 11.3258 17.2379 11.3258 19.3982C11.3258 21.5584 13.0744 23.3095 15.2317 23.3095Z" fill="#121110"/>
<path d="M27.2149 4.98206C28.2935 4.98206 29.1675 4.10621 29.1675 3.02675C29.1675 1.9473 28.2929 1.07145 27.2149 1.07145C26.1369 1.07145 25.2622 1.9473 25.2622 3.02675C25.2622 4.10621 26.1362 4.98206 27.2149 4.98206Z" fill="#121110"/>
<path d="M28.4109 14.4255C28.4109 15.5056 29.2848 16.3808 30.3635 16.3808C31.4421 16.3808 32.3161 15.5049 32.3161 14.4255C32.3161 13.346 31.4415 12.4702 30.3635 12.4702C29.2855 12.4702 28.4109 13.346 28.4109 14.4255Z" fill="#121110"/>
<path d="M37.0361 12.1865C35.3994 12.1865 34.0721 13.5149 34.0721 15.1545C34.0721 16.794 35.3987 18.1225 37.0361 18.1225C38.6734 18.1225 40 16.794 40 15.1545C40 13.5149 38.6734 12.1865 37.0361 12.1865Z" fill="#121110"/>
<path d="M25.7976 12.6551C27.5169 12.6551 28.9109 11.2592 28.9109 9.53754C28.9109 7.81588 27.5169 6.42 25.7976 6.42C24.0783 6.42 22.6843 7.81588 22.6843 9.53754C22.6843 11.2592 24.0783 12.6551 25.7976 12.6551Z" fill="#121110"/>
<path d="M26.0309 25.6553C23.4543 25.6553 21.3656 27.7468 21.3656 30.3269C21.3656 32.9071 23.4543 34.9986 26.0309 34.9986C28.6075 34.9986 30.6962 32.9071 30.6962 30.3269C30.6962 27.7468 28.6075 25.6553 26.0309 25.6553Z" fill="#121110"/>
<path d="M33.0821 19.1679C31.1588 19.1679 29.5948 20.734 29.5948 22.6599C29.5948 24.5859 31.1588 26.1513 33.0821 26.1513C35.0054 26.1513 36.5694 24.5852 36.5694 22.6599C36.5694 20.7347 35.0054 19.1679 33.0821 19.1679Z" fill="#121110"/>
<path d="M34.0721 10.6964C36.2294 10.6964 37.978 8.94541 37.978 6.78516C37.978 4.62491 36.2294 2.87388 34.0721 2.87388C31.9148 2.87388 30.1662 4.62491 30.1662 6.78516C30.1662 8.94541 31.9148 10.6964 34.0721 10.6964Z" fill="#121110"/>
<path d="M24.7683 23.3088C26.9256 23.3088 28.6742 21.5578 28.6742 19.3975C28.6742 17.2373 26.9256 15.4862 24.7683 15.4862C22.611 15.4862 20.8623 17.2373 20.8623 19.3975C20.8623 21.5578 22.611 23.3088 24.7683 23.3088Z" fill="#121110"/>
</svg>
