<svg width="24" height="24" viewBox="0 0 24 24" fill="none" xmlns="http://www.w3.org/2000/svg">
<mask id="mask0_22_3035" style="mask-type:alpha" maskUnits="userSpaceOnUse" x="0" y="0" width="24" height="24">
<rect width="24" height="24" fill="#D9D9D9"/>
</mask>
<g mask="url(#mask0_22_3035)">
<path d="M9 21.0001V14.0001C9 13.4501 9.19583 12.9792 9.5875 12.5876C9.97917 12.1959 10.45 12.0001 11 12.0001H17C17 11.4501 17.1958 10.9792 17.5875 10.5876C17.9792 10.1959 18.45 10.0001 19 10.0001C19.55 10.0001 20.0208 10.1959 20.4125 10.5876C20.8042 10.9792 21 11.4501 21 12.0001V21.0001H16V17.0001C16 16.7167 15.9042 16.4792 15.7125 16.2876C15.5208 16.0959 15.2833 16.0001 15 16.0001C14.7167 16.0001 14.4792 16.0959 14.2875 16.2876C14.0958 16.4792 14 16.7167 14 17.0001V21.0001H9ZM3 21.0001V9.37507C3 8.9584 3.11667 8.57924 3.35 8.23757C3.58333 7.8959 3.89167 7.65007 4.275 7.50007L14.65 3.52507C14.9833 3.39174 15.2917 3.42507 15.575 3.62507C15.8583 3.82507 16 4.10007 16 4.45007V10.0001H10C9.16667 10.0001 8.45833 10.2917 7.875 10.8751C7.29167 11.4584 7 12.1667 7 13.0001V21.0001H3Z" fill="#403D3B"/>
</g>
</svg>
