<svg width="20" height="20" viewBox="0 0 20 20" fill="none" xmlns="http://www.w3.org/2000/svg">
<mask id="mask0_81_5098" style="mask-type:alpha" maskUnits="userSpaceOnUse" x="0" y="0" width="20" height="20">
<rect width="20" height="20" fill="#D9D9D9"/>
</mask>
<g mask="url(#mask0_81_5098)">
<path d="M8.00069 12.9622C6.61138 12.9622 5.43062 12.4761 4.45839 11.5039C3.48617 10.5317 3.00006 9.35111 3.00006 7.96222C3.00006 6.57333 3.48617 5.39277 4.45839 4.42055C5.43062 3.44833 6.61117 2.96222 8.00006 2.96222C9.38895 2.96222 10.5695 3.44833 11.5417 4.42055C12.514 5.39277 13.0001 6.57354 13.0001 7.96284C13.0001 8.52382 12.9133 9.05284 12.7396 9.54993C12.566 10.047 12.3265 10.5039 12.0209 10.9206L16.4792 15.3789C16.632 15.5317 16.7084 15.7053 16.7084 15.8997C16.7084 16.0942 16.632 16.2678 16.4792 16.4206C16.3265 16.5733 16.1494 16.6497 15.948 16.6497C15.7466 16.6497 15.5695 16.5733 15.4167 16.4206L10.9584 11.9831C10.5417 12.2886 10.0849 12.5282 9.58777 12.7018C9.09069 12.8754 8.56166 12.9622 8.00069 12.9622ZM8.00006 11.4622C8.97228 11.4622 9.79867 11.1219 10.4792 10.4414C11.1598 9.76083 11.5001 8.93444 11.5001 7.96222C11.5001 6.99 11.1598 6.16361 10.4792 5.48305C9.79867 4.8025 8.97228 4.46222 8.00006 4.46222C7.02784 4.46222 6.20145 4.8025 5.52089 5.48305C4.84034 6.16361 4.50006 6.99 4.50006 7.96222C4.50006 8.93444 4.84034 9.76083 5.52089 10.4414C6.20145 11.1219 7.02784 11.4622 8.00006 11.4622Z" fill="black"/>
</g>
</svg>
